<svg width="523" height="533" viewBox="0 0 523 533" fill="none" xmlns="http://www.w3.org/2000/svg">
<path d="M405.871 54.0646C529.079 38.304 523.817 161.199 475.523 243.525C449.821 291.913 502.272 333.603 470.39 393.54C438.507 453.477 377.381 367.419 326.62 458.847C275.859 550.274 117.368 479.433 127.551 394.636C137.734 309.839 106.618 329.09 55.1209 235.472C3.62346 141.855 112.318 12.0882 200.537 60.8362C288.756 109.584 272.498 71.1258 405.871 54.0646Z" stroke="white" stroke-width="3"/>
<path d="M287.613 222.792C299.442 220.632 315.126 240.914 305.321 254.017C296.342 266.015 299.247 279.956 294.822 288.26C283.172 310.119 279.963 301.007 268.568 309.894C254.702 320.709 222.233 322.172 226.356 293.342C229.746 269.63 217.215 275.078 214.651 256.592C212.087 238.107 223.653 219.213 246.521 222.483C255.109 223.711 267.911 226.389 287.613 222.792Z" stroke="white" stroke-width="3"/>
<path d="M395.698 69.4839C508.78 54.9597 505.422 168.526 460.627 244.559C436.446 289.639 484.393 328.807 455.006 384.05C424.963 440.525 369.102 361.462 321.92 445.386C274.513 529.485 127.478 465.217 137.11 385.508C146.676 306.264 117.25 324.26 70.2009 237.473C23.1519 150.686 123.017 30.9981 205.295 75.6117C286.274 120.04 272.658 85.321 395.698 69.4839Z" stroke="white" stroke-width="3"/>
<path d="M385.522 84.9024C488.479 71.6147 487.025 175.852 445.729 245.593C423.068 287.364 466.511 324.009 439.621 374.558C411.417 427.572 360.821 355.504 317.217 431.925C273.165 508.695 137.586 451 146.668 376.379C155.615 302.688 127.879 319.429 85.2785 239.472C42.678 159.516 133.713 49.9073 210.05 90.3866C283.79 130.495 272.816 99.5155 385.522 84.9024Z" stroke="white" stroke-width="3"/>
<path d="M375.348 100.321C468.179 88.2702 468.63 183.179 430.833 246.627C409.692 285.09 448.63 319.213 424.236 365.068C397.872 414.62 352.541 349.547 312.516 418.464C271.818 487.906 147.696 436.784 156.226 367.251C164.557 299.113 138.51 314.599 100.358 241.473C62.2058 168.346 144.411 68.8171 214.807 105.162C281.308 140.95 272.975 113.711 375.348 100.321Z" stroke="white" stroke-width="3"/>
<path d="M365.171 115.741C447.877 104.926 450.232 190.507 415.934 247.661C396.313 282.816 430.747 314.416 408.849 355.577C384.324 401.668 344.259 343.59 307.813 405.003C270.468 467.117 157.803 422.568 165.782 358.122C173.495 295.538 149.138 309.77 115.434 243.473C81.7309 177.177 155.106 87.7271 219.561 119.938C278.823 151.406 273.132 127.906 365.171 115.741Z" stroke="white" stroke-width="3"/>
<path d="M354.6 131.103C427.181 121.525 431.44 197.777 400.641 248.638C382.541 280.485 412.471 309.563 393.069 346.03C370.383 388.659 335.583 337.576 302.715 391.485C268.725 446.271 167.516 408.295 174.945 348.937C182.04 291.906 159.372 304.883 130.117 245.417C100.862 185.95 165.407 106.58 223.922 134.656C275.944 161.804 272.895 142.044 354.6 131.103Z" stroke="white" stroke-width="3"/>
<path d="M343.559 146.399C406.015 138.057 412.178 204.981 384.878 249.549C368.298 278.088 393.724 304.643 376.818 336.416C355.972 375.583 326.437 331.496 297.148 377.901C266.512 425.358 176.76 393.956 183.637 339.686C190.115 288.208 169.137 299.93 144.33 247.294C119.524 194.657 175.239 125.367 227.812 149.308C272.596 172.136 272.188 156.116 343.559 146.399Z" stroke="white" stroke-width="3"/>
<path d="M332.494 161.692C384.824 154.586 392.892 212.181 369.091 250.457C354.031 275.688 374.953 299.72 360.543 326.799C341.536 362.505 317.266 325.412 291.556 364.314C264.274 404.442 185.979 379.613 192.305 330.431C198.166 284.506 178.877 294.974 158.519 249.167C138.161 203.361 185.046 144.15 231.678 163.957C269.223 182.465 271.457 170.185 332.494 161.692Z" stroke="white" stroke-width="3"/>
<path d="M321.39 176.98C363.595 171.111 373.567 219.378 353.265 251.36C339.725 273.283 356.142 294.792 344.229 317.177C327.061 349.421 308.056 319.324 285.925 350.722C261.997 383.522 195.158 365.266 200.934 321.172C206.177 280.8 188.577 290.013 172.668 251.037C156.758 212.061 194.814 162.929 235.505 178.602C265.81 192.79 270.687 184.249 321.39 176.98Z" stroke="white" stroke-width="3"/>
<path d="M310.23 192.261C342.309 187.628 354.186 226.567 337.383 252.256C325.363 270.871 337.277 289.857 327.859 307.549C312.53 336.331 298.791 313.229 280.239 337.123C259.664 362.595 204.282 350.912 209.507 311.906C214.132 277.087 198.222 285.045 186.761 252.899C175.3 220.753 204.526 181.701 239.276 193.239C262.343 203.107 269.861 198.306 310.23 192.261Z" stroke="white" stroke-width="3"/>
<path d="M298.988 207.532C320.942 204.136 334.723 233.746 321.418 253.142C310.919 268.449 318.328 284.913 311.407 297.91C297.918 323.231 289.443 307.124 274.47 323.515C257.25 341.658 213.324 336.548 217.998 302.63C222.006 273.365 207.785 280.067 200.773 254.752C193.76 229.436 214.156 200.463 242.965 207.867C258.792 213.415 268.952 212.354 298.988 207.532Z" stroke="white" stroke-width="3"/>
</svg>
